Coordinates
version=1
nRows=15
nColumns=46
inDegrees=yes

Units are S.I. units (second, meters, Newtons, ...)
Angles are in degrees.

endheader
time	pelvis_tilt	pelvis_list	pelvis_rotation	pelvis_tx	pelvis_ty	pelvis_tz	bb_angle	bb_tx	bb_ty	bb_tz	hip_flexion_r	hip_adduction_r	hip_rotation_r	knee_angle_r	knee_angle_r_beta	ankle_angle_r	subtalar_angle_r	mtp_angle_r	crank_angle_r	hip_flexion_l	hip_adduction_l	hip_rotation_l	knee_angle_l	knee_angle_l_beta	ankle_angle_l	subtalar_angle_l	mtp_angle_l	crank_angle_l	lumbar_extension	lumbar_bending	lumbar_rotation	arm_flex_r	arm_add_r	arm_rot_r	elbow_flex_r	pro_sup_r	wrist_flex_r	wrist_dev_r	arm_flex_l	arm_add_l	arm_rot_l	elbow_flex_l	pro_sup_l	wrist_flex_l	wrist_dev_l
      2.50500000	    -26.94963186	     -7.20656840	     -5.61970869	      0.33503453	      1.23551585	     -0.24442382	      0.00000000	      0.50000000	      0.00000000	      0.25000000	     80.05074621	      4.06825419	     -4.43472951	     84.02709381	      1.46654945	     -0.09194204	     -9.40525542	      0.00000000	      0.00000000	     42.57653398	    -13.00335667	      2.76008690	     46.80591534	      0.81691733	    -22.36034980	     -7.43781920	      0.00000000	      0.00000000	    -64.47368254	      8.32032124	      8.79828492	     87.94083300	     -9.28762673	     41.09097956	     53.11327360	     51.39719228	      0.00000000	      0.00000000	     65.62834111	    -17.18832006	     12.13785773	     71.98856638	     52.62619570	      0.00000000	      0.00000000
      2.51000000	    -27.45108930	     -6.83109821	     -5.74461090	      0.33522618	      1.23577653	     -0.24510113	      0.00000000	      0.50000000	      0.00000000	      0.25000000	     79.30928899	      4.13963546	     -4.13597417	     81.91329887	      1.42965677	      1.33306219	     -9.86658617	      0.00000000	      0.00000000	     43.57180944	    -12.65761722	      2.70712012	     48.35507717	      0.84395531	    -22.20634946	     -7.96181927	      0.00000000	      0.00000000	    -64.45409993	      8.13040537	      8.51667129	     87.98795747	     -9.17900879	     40.76744695	     53.56711955	     51.42591067	      0.00000000	      0.00000000	     65.71297969	    -17.37386940	     11.95327360	     72.55126060	     52.69773808	      0.00000000	      0.00000000
      2.51500000	    -27.96329886	     -6.52968608	     -5.71962227	      0.33541986	      1.23558549	     -0.24599116	      0.00000000	      0.50000000	      0.00000000	      0.25000000	     78.53525145	      4.04776071	     -3.93953519	     79.74652211	      1.39183938	      2.60548357	    -10.05615720	      0.00000000	      0.00000000	     44.65472948	    -12.28013434	      2.78432965	     50.04195561	      0.87339689	    -21.79085541	     -8.56725244	      0.00000000	      0.00000000	    -64.41026369	      8.10003678	      8.16429188	     87.92998084	     -9.04034953	     40.26344944	     54.28940956	     51.47779196	      0.00000000	      0.00000000	     65.55157097	    -17.69019068	     11.70838933	     73.42164608	     52.81563723	      0.00000000	      0.00000000
      2.52000000	    -28.46146121	     -6.10713914	     -5.59405741	      0.33580274	      1.23503309	     -0.24678431	      0.00000000	      0.50000000	      0.00000000	      0.25000000	     77.71430877	      3.81374218	     -3.69443740	     77.57808030	      1.35399293	      3.82308133	    -10.25726225	      0.00000000	      0.00000000	     45.68743064	    -11.77295328	      2.84497238	     51.68269592	      0.90203321	    -21.20757741	     -8.87615936	      0.00000000	      0.00000000	    -64.50010507	      8.04631214	      7.25255596	     87.27962463	     -8.37268041	     38.39027394	     56.39403497	     51.62112957	      0.00000000	      0.00000000	     64.23022485	    -18.99496205	     10.78771375	     76.83556387	     53.29315552	      0.00000000	      0.00000000
      2.52500000	    -28.72983710	     -5.60112041	     -5.41841311	      0.33620774	      1.23459453	     -0.24772124	      0.00000000	      0.50000000	      0.00000000	      0.25000000	     76.66670806	      3.54672381	     -3.27642865	     75.39792398	      1.31594202	      4.87386639	    -10.64760234	      0.00000000	      0.00000000	     46.44791159	    -11.18531827	      2.75749300	     53.31223763	      0.93047408	    -20.48135652	     -9.41176264	      0.00000000	      0.00000000	    -64.43169765	      7.90473380	      6.74707889	     87.20984938	     -8.30996158	     38.22723628	     56.54988760	     51.63278446	      0.00000000	      0.00000000	     64.38501774	    -19.02796504	     10.76632354	     77.06108335	     53.32591678	      0.00000000	      0.00000000
      2.53000000	    -29.03989330	     -5.16060286	     -5.17558655	      0.33669338	      1.23357982	     -0.24848993	      0.00000000	      0.50000000	      0.00000000	      0.25000000	     75.65822925	      3.13895279	     -3.05792269	     73.23088242	      1.27812001	      5.92703989	    -10.51195161	      0.00000000	      0.00000000	     47.33919787	    -10.68665574	      2.68994458	     55.12986006	      0.96219757	    -19.38274844	     -9.63973099	      0.00000000	      0.00000000	    -64.43734721	      7.88666982	      6.06463555	     86.51278567	     -7.76408228	     36.54602025	     57.90328104	     51.74144008	      0.00000000	      0.00000000	     63.82108896	    -19.94838231	     10.68131717	     78.82111199	     53.62228819	      0.00000000	      0.00000000
      2.53500000	    -29.17370600	     -4.58053912	     -4.90506182	      0.33723466	      1.23278518	     -0.24933684	      0.00000000	      0.50000000	      0.00000000	      0.25000000	     74.49001104	      2.65034972	     -2.70395948	     71.04258015	      1.23992693	      6.68332375	    -10.52636069	      0.00000000	      0.00000000	     47.98310849	    -10.03467732	      2.52535385	     56.80483494	      0.99143140	    -18.50774790	    -10.01187519	      0.00000000	      0.00000000	    -64.34498241	      7.66129785	      5.43512658	     86.31075890	     -7.84382720	     36.41474248	     57.99743016	     51.75196196	      0.00000000	      0.00000000	     63.90449351	    -19.87291527	     10.76491082	     78.93704634	     53.65036362	      0.00000000	      0.00000000
      2.54000000	    -29.25930348	     -4.07514339	     -4.60574641	      0.33789669	      1.23146326	     -0.25020116	      0.00000000	      0.50000000	      0.00000000	      0.25000000	     73.30047462	      2.22163033	     -2.28639481	     68.94034114	      1.20323594	      7.49976514	    -10.32456685	      0.00000000	      0.00000000	     48.63912118	     -9.47528227	      2.31694381	     58.64637864	      1.02357240	    -17.15929658	    -10.23191124	      0.00000000	      0.00000000	    -64.23722593	      7.65972681	      4.95685850	     85.88595100	     -7.84945533	     36.08858411	     58.38208016	     51.79501226	      0.00000000	      0.00000000	     63.95066775	    -19.99079703	     10.86802136	     79.19201875	     53.70495625	      0.00000000	      0.00000000
      2.54500000	    -29.31519479	     -3.54515502	     -4.29218321	      0.33863423	      1.22983898	     -0.25052358	      0.00000000	      0.50000000	      0.00000000	      0.25000000	     72.13884119	      1.76106084	     -1.85099397	     66.94995199	      1.16849710	      8.25693474	     -9.69043323	      0.00000000	      0.00000000	     49.33182293	     -9.00226820	      2.08704083	     60.59708283	      1.05761861	    -15.53939543	     -9.43545476	      0.00000000	      0.00000000	    -64.26247028	      7.45232307	      4.43131441	     84.28445234	     -7.67332781	     33.39773574	     60.99688711	     52.05483756	      0.00000000	      0.00000000	     63.71486267	    -20.69015910	     11.51708156	     80.43737665	     54.00788723	      0.00000000	      0.00000000
      2.55000000	    -29.37602007	     -2.98832831	     -4.02822981	      0.33939641	      1.22804189	     -0.25131426	      0.00000000	      0.50000000	      0.00000000	      0.25000000	     71.07957425	      1.23982485	     -1.41836105	     65.06133237	      1.13553447	      8.66119357	     -9.15480499	      0.00000000	      0.00000000	     50.04884941	     -8.47398099	      1.81173744	     62.55130342	      1.09172620	    -14.11081185	     -9.17646052	      0.00000000	      0.00000000	    -64.08058513	      7.26814978	      4.10731888	     83.10401202	     -7.81132523	     31.84387856	     62.39076909	     52.28791018	      0.00000000	      0.00000000	     63.79192479	    -20.44190994	     11.84587786	     80.42393316	     54.07389744	      0.00000000	      0.00000000
      2.55500000	    -29.21742817	     -2.37025493	     -3.55747385	      0.33970563	      1.22609233	     -0.25164161	      0.00000000	      0.50000000	      0.00000000	      0.25000000	     69.97795347	      0.55029827	     -0.99382320	     63.46398779	      1.10765554	      8.80494862	     -8.79627758	      0.00000000	      0.00000000	     50.69299175	     -7.79335354	      1.60796083	     64.60353492	      1.12754439	    -12.95273837	     -9.25058315	      0.00000000	      0.00000000	    -63.99772575	      7.21395949	      3.45664681	     82.56072577	     -7.83436922	     31.69250917	     62.64537766	     52.34260392	      0.00000000	      0.00000000	     63.85887570	    -20.46850049	     11.98449558	     80.40943081	     54.09089373	      0.00000000	      0.00000000
      2.56000000	    -29.31177710	     -1.89208731	     -3.36924939	      0.34040318	      1.22351720	     -0.25228868	      0.00000000	      0.50000000	      0.00000000	      0.25000000	     69.13513037	      0.08076593	     -0.67895019	     61.88374611	      1.08007512	      9.07199719	     -7.97722526	      0.00000000	      0.00000000	     51.66004892	     -7.43540325	      1.35057881	     66.83627277	      1.16651302	    -11.49419399	     -8.42845090	      0.00000000	      0.00000000	    -63.65015628	      7.10741505	      3.03692874	     81.52412273	     -7.80886153	     30.83069274	     63.69977978	     52.48458583	      0.00000000	      0.00000000	     63.54078267	    -20.62458474	     12.28237173	     80.58547846	     54.16847140	      0.00000000	      0.00000000
      2.56500000	    -29.33326814	     -1.35873369	     -3.24992581	      0.34125704	      1.22103558	     -0.25280093	      0.00000000	      0.50000000	      0.00000000	      0.25000000	     68.23852840	     -0.30083017	     -0.27351631	     60.30644469	      1.05254602	      8.75235095	     -7.80256060	      0.00000000	      0.00000000	     52.57905032	     -7.10109066	      0.95761728	     69.06286915	      1.20537446	    -10.40538063	     -8.15348306	      0.00000000	      0.00000000	    -63.44017920	      6.76685280	      2.90068493	     79.80738847	     -8.01161711	     28.63445099	     65.97277468	     52.80664565	      0.00000000	      0.00000000	     63.44438284	    -20.25119919	     12.62764048	     80.91243395	     54.28774500	      0.00000000	      0.00000000
      2.57000000	    -29.02827491	     -0.78479279	     -2.90045679	      0.34172780	      1.21865839	     -0.25282103	      0.00000000	      0.50000000	      0.00000000	      0.25000000	     67.12218459	     -0.84905693	      0.13034547	     58.97803218	      1.02936085	      8.61805370	     -7.64436041	      0.00000000	      0.00000000	     53.31737996	     -6.61541598	      0.66820225	     71.32148039	      1.24479466	     -9.92871427	     -8.22552624	      0.00000000	      0.00000000	    -63.35750352	      6.57370807	      2.29559923	     79.44238058	     -8.09183772	     28.58315771	     66.02341614	     52.82339103	      0.00000000	      0.00000000	     63.39244529	    -20.14463345	     12.75760950	     80.86456100	     54.29702164	      0.00000000	      0.00000000
      2.57500000	    -29.03713442	     -0.32665681	     -2.73166387	      0.34215906	      1.21530088	     -0.25259532	      0.00000000	      0.50000000	      0.00000000	      0.25000000	     66.37152971	     -1.17232503	      0.45184357	     57.72115920	      1.00742428	      8.22775323	     -7.59002592	      0.00000000	      0.00000000	     54.49976961	     -6.41688965	      0.39479674	     73.81191807	      1.28826100	     -8.85602527	     -7.34089742	      0.00000000	      0.00000000	    -62.89888674	      6.23949106	      2.29785293	     77.46200842	     -8.19369825	     26.55728168	     67.95992123	     53.13688057	      0.00000000	      0.00000000	     63.55065688	    -19.95550255	     13.66399720	     80.43938321	     54.35168547	      0.00000000	      0.00000000
